<?xml version="1.0"?>
<svg xmlns="http://www.w3.org/2000/svg" height="512px" viewBox="-3 0 471 472" width="512px"><g><path d="m160.5 272c0 22.089844-17.910156 40-40 40s-40-17.910156-40-40 17.910156-40 40-40 40 17.910156 40 40zm0 0" fill="#f9c170" data-original="#F9C170"/><path d="m144.5 288c-13-.039062-25.164062-6.394531-32.628906-17.039062-7.460938-10.640626-9.285156-24.246094-4.890625-36.480469-17.570313 6.207031-28.523438 23.71875-26.421875 42.234375 2.105468 18.511718 16.714844 33.121094 35.226562 35.226562 18.515625 2.101563 36.027344-8.851562 42.234375-26.421875-4.328125 1.601563-8.902343 2.441407-13.519531 2.480469zm0 0" fill="#faa108" data-original="#FAA108" class=""/><path d="m16.5 240h8c8.835938 0 16 7.164062 16 16v200c0 8.835938-7.164062 16-16 16h-8c-8.835938 0-16-7.164062-16-16v-200c0-8.835938 7.164062-16 16-16zm0 0" fill="#70dda8" data-original="#70DDA8"/><path d="m424.5 344h24c8.835938 0 16 7.164062 16 16v96c0 8.835938-7.164062 16-16 16h-8c-8.835938 0-16-7.164062-16-16zm0 0" fill="#70dda8" data-original="#70DDA8"/><path d="m72.5 312h64v32h-64zm0 0" fill="#40bf7c" data-original="#40BF7C"/><path d="m360.5 344v16c0 17.671875-14.328125 32-32 32h-136c-17.671875 0-32-14.328125-32-32v-16h-120v80h384v-80zm0 0" fill="#fd412d" data-original="#FD412D" class=""/><path d="m360.5 296h40c13.253906 0 24 10.746094 24 24s-10.746094 24-24 24h-40zm0 0" fill="#f9c170" data-original="#F9C170"/><path d="m328.5 392h-136c-17.671875 0-32-14.328125-32-32v-87.441406c0-9.792969 4.488281-19.050782 12.179688-25.117188 7.6875-6.066406 17.734374-8.277344 27.261718-6l154.398438 37.117188c3.691406.871094 6.261718 4.210937 6.160156 8v73.441406c0 17.671875-14.328125 32-32 32zm0 0" fill="#70dda8" data-original="#70DDA8"/><path d="m272.5 8h192v192h-192zm0 0" fill="#70dda8" data-original="#70DDA8"/><path d="m408.5 152c-53.019531 0-96-42.980469-96-96v-48h-40v192h192v-48zm0 0" fill="#40bf7c" data-original="#40BF7C"/><g fill="#faa108"><path d="m360.5 143.121094c-17.671875 0-32-14.328125-32-32 .007812-2.402344.300781-4.792969.878906-7.121094-15.46875 3.476562-26.0625 17.761719-24.894531 33.578125 1.167969 15.8125 13.742187 28.386719 29.558594 29.554687 15.8125 1.167969 30.097656-9.421874 33.578125-24.894531-2.332032.578125-4.722656.875-7.121094.882813zm0 0" data-original="#000000"/><path d="m428.5 96v-4h4c4.417969 0 8-3.582031 8-8s-3.582031-8-8-8h-4v-4c0-4.417969-3.582031-8-8-8s-8 3.582031-8 8v4h-4c-4.417969 0-8 3.582031-8 8s3.582031 8 8 8h4v4c0 4.417969 3.582031 8 8 8s8-3.582031 8-8zm0 0" data-original="#000000"/><path d="m344.5 44h-4v-4c0-4.417969-3.582031-8-8-8s-8 3.582031-8 8v4h-4c-4.417969 0-8 3.582031-8 8s3.582031 8 8 8h4v4c0 4.417969 3.582031 8 8 8s8-3.582031 8-8v-4h4c4.417969 0 8-3.582031 8-8s-3.582031-8-8-8zm0 0" data-original="#000000"/><path d="m392.5 40c0 4.417969-3.582031 8-8 8s-8-3.582031-8-8 3.582031-8 8-8 8 3.582031 8 8zm0 0" data-original="#000000"/><path d="m440.5 160c0 4.417969-3.582031 8-8 8s-8-3.582031-8-8 3.582031-8 8-8 8 3.582031 8 8zm0 0" data-original="#000000"/></g><path d="m104.5 112h-20.71875l26.398438-26.320312c2.269531-2.300782 2.933593-5.742188 1.679687-8.71875-1.226563-2.988282-4.128906-4.945313-7.359375-4.960938h-40c-4.417969 0-8 3.582031-8 8s3.582031 8 8 8h20.71875l-26.398438 26.320312c-2.269531 2.300782-2.933593 5.742188-1.679687 8.71875 1.226563 2.988282 4.128906 4.945313 7.359375 4.960938h40c4.417969 0 8-3.582031 8-8s-3.582031-8-8-8zm0 0" fill="#40bf7c" data-original="#40BF7C"/><path d="m192.5 48h-28.71875l34.398438-34.320312c2.269531-2.300782 2.933593-5.742188 1.679687-8.71875-1.226563-2.988282-4.128906-4.945313-7.359375-4.960938h-48c-4.417969 0-8 3.582031-8 8s3.582031 8 8 8h28.71875l-34.398438 34.320312c-2.269531 2.300782-2.933593 5.742188-1.679687 8.71875 1.226563 2.988282 4.128906 4.945313 7.359375 4.960938h48c4.417969 0 8-3.582031 8-8s-3.582031-8-8-8zm0 0" fill="#40bf7c" data-original="#40BF7C"/><path d="m160.5 184h-15.359375l21.597656-27.039062c1.894531-2.390626 2.269531-5.648438.960938-8.402344-1.324219-2.777344-4.121094-4.550782-7.199219-4.558594h-32c-4.417969 0-8 3.582031-8 8s3.582031 8 8 8h15.359375l-21.597656 27.039062c-1.894531 2.390626-2.269531 5.648438-.960938 8.402344 1.324219 2.777344 4.121094 4.550782 7.199219 4.558594h32c4.417969 0 8-3.582031 8-8s-3.582031-8-8-8zm0 0" fill="#40bf7c" data-original="#40BF7C"/><path d="m.5 394.800781v61.199219c0 8.835938 7.164062 16 16 16h8c8.835938 0 16-7.164062 16-16v-19.121094c-18.132812-8.523437-32.40625-23.539062-40-42.078125zm0 0" fill="#40bf7c" data-original="#40BF7C"/><path d="m424.5 392v64c0 8.835938 7.164062 16 16 16h8c8.835938 0 16-7.164062 16-16v-11.519531c-17.199219-7.519531-31.601562-26.640625-40-52.480469zm0 0" fill="#40bf7c" data-original="#40BF7C"/><path d="m376.5 352.71875v-8.71875h-16v16c0 17.671875-14.328125 32-32 32h-136c-17.671875 0-32-14.328125-32-32v-16h-80v8.71875c.394531 39.484375 32.515625 71.285156 72 71.28125h152c39.484375.003906 71.605469-31.796875 72-71.28125zm0 0" fill="#d6332b" data-original="#D6332B" class="active-path" style="fill:#D6332B"/><path d="m372.179688 296h-11.679688v48h40c3.242188-.011719 6.449219-.664062 9.441406-1.921875-18.050781-9.925781-31.578125-26.429687-37.761718-46.078125zm0 0" fill="#faa108" data-original="#FAA108" class=""/><path d="m160.5 304.480469v55.519531c0 17.671875 14.328125 32 32 32h136c8.410156.007812 16.488281-3.296875 22.480469-9.199219-87.441407-6.320312-159.679688-36.960937-190.480469-78.320312zm0 0" fill="#40bf7c" data-original="#40BF7C"/></g> </svg>
