<?xml version="1.0"?>
<svg xmlns="http://www.w3.org/2000/svg" height="512px" viewBox="0 0 464 464" width="512px" class=""><g><path d="m0 120h464v224h-464zm0 0" fill="#368ec9" data-original="#368EC9"/><path d="m0 0h464v120h-464zm0 0" fill="#4398d1" data-original="#4398D1"/><path d="m0 322.527344v21.472656h464v-224h-31.566406zm0 0" fill="#2181c2" data-original="#2181C2" class=""/><path d="m32 152h400v192h-400zm0 0" fill="#126099" data-original="#126099"/><path d="m32 280h400v184h-400zm0 0" fill="#4398d1" data-original="#4398D1"/><path d="m64 152h336v32h-336zm0 0" fill="#d67e00" data-original="#D67E00"/><path d="m195.574219 175.152344-7.148438-14.304688c-2.710937-5.421875-8.253906-8.847656-14.3125-8.847656h-44.226562c-6.058594 0-11.601563 3.425781-14.3125 8.847656l-7.148438 14.304688c-2.710937 5.421875-8.253906 8.847656-14.3125 8.847656h-30.113281v32h336v-32h-190.113281c-6.058594 0-11.601563-3.425781-14.3125-8.847656zm0 0" fill="#ed9415" data-original="#ED9415"/><path d="m275.574219 207.152344-7.148438-14.304688c-2.710937-5.421875-8.253906-8.847656-14.3125-8.847656h-44.226562c-6.058594 0-11.601563 3.425781-14.3125 8.847656l-7.148438 14.304688c-2.710937 5.421875-8.253906 8.847656-14.3125 8.847656h-110.113281v32h336v-32h-110.113281c-6.058594 0-11.601563-3.425781-14.3125-8.847656zm0 0" fill="#f7a531" data-original="#F7A531"/><path d="m355.574219 239.152344-7.148438-14.304688c-2.710937-5.421875-8.253906-8.847656-14.3125-8.847656h-44.226562c-6.058594 0-11.601563 3.425781-14.3125 8.847656l-7.148438 14.304688c-2.710937 5.421875-8.253906 8.847656-14.3125 8.847656h-190.113281v32h336v-32h-30.113281c-6.058594 0-11.601563-3.425781-14.3125-8.847656zm0 0" fill="#ffc14d" data-original="#FFC14D"/><path d="m24 24h16v16h-16zm0 0" fill="#63b4eb" data-original="#63B4EB"/><path d="m24 56h16v32h-16zm0 0" fill="#63b4eb" data-original="#63B4EB"/><path d="m160 320h144v48h-144zm0 0" fill="#dbdfe0" data-original="#DBDFE0"/><path d="m160 352h144v16h-144zm0 0" fill="#d1d4d6" data-original="#D1D4D6" class="active-path" style="fill:#D1D4D6"/><path d="m160 368h144v24h-144zm0 0" fill="#368ec9" data-original="#368EC9"/><path d="m432 333.457031-191.464844 130.542969h191.464844zm0 0" fill="#2181c2" data-original="#2181C2" class=""/></g> </svg>
