<?xml version="1.0"?>
<svg xmlns="http://www.w3.org/2000/svg" height="512px" viewBox="0 -4 472.48 472" width="512px"><g><path d="m118.558594 272.238281 76.082031 22.800781 37.359375-34.238281 240.480469-220.5625-136.480469-40-184 181.601563-47.441406 46.800781zm0 0" fill="#70dda8" data-original="#70DDA8"/><path d="m152 181.839844 80 78.960937 240.480469-220.5625-136.480469-40zm0 0" fill="#f9c170" data-original="#F9C170"/><path d="m302.558594 368.238281h-45.519532l-58.480468-72-80-24-20.078125-62.558593-90.480469 90.480468 164.078125 164.078125h186.480469v-40c0-30.925781-25.070313-56-56-56zm0 0" fill="#fd412d" data-original="#FD412D"/><path d="m289.601562 464.238281c-44.820312-8.734375-85.472656-32.085937-115.601562-66.398437-31.527344-34.398438-50.425781-78.488282-53.601562-125.039063l-1.839844-.5625-20.078125-62.558593-90.480469 90.480468 164.078125 164.078125zm0 0" fill="#d6332b" data-original="#D6332B"/><path d="m185.28125 432.238281-154.640625-154.71875-22.640625 22.640625 164.078125 164.078125h186.480469v-32zm0 0" fill="#40bf7c" data-original="#40BF7C"/><path d="m213.121094 432.238281c22.945312 15.953125 49.011718 26.859375 76.480468 32h68.957032v-32zm0 0" fill="#70dda8" data-original="#70DDA8"/><path d="m198.558594 336.238281c0 4.421875-3.582032 8-8 8-4.417969 0-8-3.578125-8-8 0-4.417969 3.582031-8 8-8 4.417968 0 8 3.582031 8 8zm0 0" fill="#301993" data-original="#301993"/><path d="m222.558594 368.238281c0 4.421875-3.582032 8-8 8-4.417969 0-8-3.578125-8-8 0-4.417969 3.582031-8 8-8 4.417968 0 8 3.582031 8 8zm0 0" fill="#301993" data-original="#301993"/><path d="m472 280.238281-72-72v32h-64v80h64v32zm0 0" fill="#fc756b" data-original="#FC756B"/><g fill="#fd412d"><path d="m8 120.238281h152c4.417969 0 8-3.578125 8-8 0-4.417969-3.582031-8-8-8h-152c-4.417969 0-8 3.582031-8 8 0 4.421875 3.582031 8 8 8zm0 0" data-original="#000000"/><path d="m104 64.238281h120c4.417969 0 8-3.578125 8-8 0-4.417969-3.582031-8-8-8h-120c-4.417969 0-8 3.582031-8 8 0 4.421875 3.582031 8 8 8zm0 0" data-original="#000000"/><path d="m184 16.238281h96c4.417969 0 8-3.578125 8-8 0-4.417969-3.582031-8-8-8h-96c-4.417969 0-8 3.582031-8 8 0 4.421875 3.582031 8 8 8zm0 0" data-original="#000000"/></g><path d="m336 .238281-184 181.601563-47.441406 46.800781 14 43.597656 9.441406 2.882813 208.398438-274.800782zm0 0" fill="#40bf7c" data-original="#40BF7C"/><path d="m336 .238281-184 181.601563 26.71875 26.398437 157.679688-207.917969zm0 0" fill="#faa108" data-original="#FAA108" class="active-path" style="fill:#FAA108"/><path d="m466.878906 285.359375c-10.179687 1.910156-20.519531 2.875-30.878906 2.878906-45.199219 0-84-17.519531-100-42.398437v74.398437h64v32zm0 0" fill="#fd412d" data-original="#FD412D"/></g> </svg>
