<?xml version="1.0"?>
<svg xmlns="http://www.w3.org/2000/svg" xmlns:xlink="http://www.w3.org/1999/xlink" version="1.1" id="Capa_1" x="0px" y="0px" viewBox="0 0 512 512" style="enable-background:new 0 0 512 512;" xml:space="preserve" width="512px" height="512px"><g><circle style="fill:#FFDC00;" cx="256" cy="256" r="256" data-original="#FFDC00"/><path style="fill:#FFC000;" d="M512,256c0-4.746-0.139-9.458-0.394-14.14L355.377,85.632l-28.301-1.313L256,13.43l-61.419,189.027  l34.589,34.589L120.5,238.5l-2.839,63L64.5,412.57l67.337,67.337C168.613,500.344,210.943,512,256,512  C397.385,512,512,397.385,512,256z" data-original="#FFC000"/><polygon style="fill:#FF6838;" points="267.5,224.609 267.5,128.381 244.5,128.381 244.5,224.609 106.161,224.609 106.161,355.431   129.161,355.431 129.161,247.609 382.839,247.609 382.839,355.431 405.839,355.431 405.839,224.609 " data-original="#FF6838"/><polygon style="fill:#AE4E32;" points="267.5,224.609 267.5,128.381 256,128.381 256,247.609 382.839,247.609 382.839,355.431   405.839,355.431 405.839,224.609 " data-original="#AE4E32"/><rect x="64.5" y="306.25" style="fill:#008CC3;" width="106.32" height="106.32" data-original="#008CC3"/><g>
	<rect x="341.18" y="306.25" style="fill:#0074A3;" width="106.32" height="106.32" data-original="#0074A3"/>
	<polygon style="fill:#0074A3;" points="256,13.43 286.709,75.654 355.377,85.632 305.689,134.066 317.419,202.457 256,170.167    194.581,202.457 206.311,134.066 156.623,85.632 225.291,75.654  " data-original="#0074A3"/>
</g><polygon style="fill:#005C83" points="355.377,85.632 286.709,75.654 256,13.43 256,170.167 317.419,202.457 305.689,134.066 " data-original="#005C83" class="active-path"/></g> </svg>
