<?xml version="1.0"?>
<svg xmlns="http://www.w3.org/2000/svg" xmlns:xlink="http://www.w3.org/1999/xlink" version="1.1" id="Capa_1" x="0px" y="0px" viewBox="0 0 512 512" style="enable-background:new 0 0 512 512;" xml:space="preserve" width="512px" height="512px" class=""><g><path style="fill:#9B9BA8" d="M143.762,506.753H67.493c-8.46,0-15.319-6.859-15.319-15.319v-48.292  c0-8.46,6.859-15.319,15.319-15.319h76.269c8.46,0,15.319,6.859,15.319,15.319v48.292  C159.081,499.894,152.222,506.753,143.762,506.753z" data-original="#007CE7" class="active-path" data-old_color="#9999A7"/><path style="fill:#4E5566" d="M444.513,506.753h-76.269c-8.46,0-15.319-6.859-15.319-15.319v-48.292  c0-8.46,6.859-15.319,15.319-15.319h76.269c8.46,0,15.319,6.859,15.319,15.319v48.292  C459.832,499.894,452.973,506.753,444.513,506.753z" data-original="#005EAB" class="" data-old_color="#4D5466"/><path style="fill:#FF5E8D;" d="M143.762,124.141c-5.174,0-9.999-2.612-12.827-6.945L73.319,28.942  c-4.624-7.085-2.631-16.576,4.454-21.201c7.086-4.625,16.576-2.63,21.201,4.454l44.787,68.604l44.787-68.604  c4.625-7.083,14.117-9.078,21.201-4.454c7.084,4.625,9.078,14.118,4.454,21.201l-57.616,88.253  C153.76,121.528,148.936,124.141,143.762,124.141z" data-original="#FF5E8D" class=""/><path style="fill:#00BFFF" d="M464.87,458.46H47.128C21.142,458.46,0,437.318,0,411.331V141.679  C0,115.692,21.142,94.55,47.128,94.55H464.87c25.987,0,47.129,21.142,47.129,47.129v269.652  C512,437.318,490.858,458.46,464.87,458.46z" data-original="#444444" class="" data-old_color="#00B7FF"/><path style="fill:#00BFFF" d="M464.87,94.55H256v363.91h208.871c25.987,0,47.129-21.142,47.129-47.129V141.679  C512,115.692,490.858,94.55,464.87,94.55z" data-original="#282828" class="" data-old_color="#0026FF"/><path style="fill:#FFFFFF;" d="M347.917,402.291H72.176c-8.46,0-15.319-6.859-15.319-15.319V166.038  c0-8.46,6.859-15.319,15.319-15.319h275.741c8.46,0,15.319,6.859,15.319,15.319v220.933  C363.236,395.432,356.377,402.291,347.917,402.291z" data-original="#FFFFFF" class=""/><path style="fill:#FFF6A4;" d="M347.917,150.719H256V402.29h91.917c8.46,0,15.319-6.859,15.319-15.319V166.038  C363.236,157.578,356.377,150.719,347.917,150.719z" data-original="#FFF6A4"/><g>
	<path style="fill:#FF8273" d="M438.807,268.078c-25.855,0-46.891-21.035-46.891-46.891s21.036-46.891,46.891-46.891   c25.855,0,46.891,21.035,46.891,46.891S464.662,268.078,438.807,268.078z" data-original="#FF8273" class=""/>
	<path style="fill:#FF8273" d="M438.807,383.974c-25.855,0-46.891-21.035-46.891-46.891s21.036-46.891,46.891-46.891   c25.855,0,46.891,21.035,46.891,46.891S464.662,383.974,438.807,383.974z" data-original="#FF8273" class=""/>
</g></g> </svg>
