<?xml version="1.0"?>
<svg xmlns="http://www.w3.org/2000/svg" height="512px" viewBox="0 -18 512 512" width="512px"><g><path d="m0 61.792969v167.722656c0 19.5 15.808594 35.3125 35.308594 35.3125h21.867187c-.21875-.617187-.492187-1.199219-.671875-1.835937h398.992188c-.179688.636718-.453125 1.21875-.671875 1.835937h21.867187c19.5 0 35.308594-15.8125 35.308594-35.3125v-167.722656zm0 0" fill="#e7eced" data-original="#E7ECED"/><path d="m476.691406 0h-441.382812c-19.5 0-35.308594 15.808594-35.308594 35.308594v70.621094h512v-70.621094c0-19.5-15.808594-35.308594-35.308594-35.308594zm0 0" fill="#d3d6dc" data-original="#D3D6DC"/><g fill="#9cc2e9"><path d="m256.203125 476.691406c-2.285156 0-4.5625-.882812-6.285156-2.632812-13.621094-13.832032-20.417969-28.210938-20.1875-42.75.21875-14.160156 7.078125-27.765625 20.382812-40.449219 9.949219-9.261719 15.015625-18.722656 15.128907-28.179687.113281-9.761719-4.996094-19.773438-15.199219-29.738282-3.488281-3.40625-3.558594-8.996094-.152344-12.480468 3.40625-3.496094 8.996094-3.550782 12.484375-.152344 13.789062 13.472656 20.691406 27.796875 20.515625 42.585937-.179687 14.476563-7.132813 28.203125-20.675781 40.816407-9.675782 9.226562-14.6875 18.628906-14.839844 27.878906-.148438 9.628906 4.933594 19.746094 15.113281 30.085937 3.425781 3.476563 3.382813 9.054688-.097656 12.480469-1.710937 1.6875-3.945313 2.535156-6.1875 2.535156zm0 0" data-original="#000000"/><path d="m353.101562 476.691406c-2.285156 0-4.5625-.882812-6.285156-2.632812-13.621094-13.832032-20.417968-28.210938-20.1875-42.75.222656-14.160156 7.082032-27.765625 20.390625-40.449219 10.019531-9.332031 15.113281-18.839844 15.230469-28.328125.113281-9.738281-4.960938-19.683594-15.097656-29.589844-3.484375-3.40625-3.554688-8.996094-.148438-12.480468 3.40625-3.496094 8.996094-3.550782 12.480469-.152344 13.726563 13.410156 20.597656 27.683594 20.417969 42.425781-.175782 14.511719-7.167969 28.300781-20.777344 40.96875-9.675781 9.226563-14.699219 18.625-14.839844 27.878906-.152344 9.621094 4.933594 19.746094 15.113282 30.082031 3.425781 3.480469 3.378906 9.058594-.097657 12.484376-1.722656 1.695312-3.964843 2.542968-6.199219 2.542968zm0 0" data-original="#000000"/><path d="m158.898438 476.691406c-2.289063 0-4.566407-.882812-6.289063-2.632812-13.617187-13.832032-20.417969-28.210938-20.1875-42.75.222656-14.160156 7.082031-27.765625 20.390625-40.449219 10.019531-9.332031 15.113281-18.839844 15.230469-28.328125.113281-9.738281-4.960938-19.683594-15.097657-29.589844-3.484374-3.40625-3.554687-8.996094-.148437-12.480468 3.40625-3.496094 8.996094-3.550782 12.480469-.152344 13.726562 13.410156 20.597656 27.683594 20.417968 42.425781-.175781 14.511719-7.167968 28.300781-20.777343 40.96875-9.675781 9.226563-14.699219 18.625-14.839844 27.878906-.152344 9.621094 4.933594 19.746094 15.113281 30.082031 3.425782 3.480469 3.378906 9.058594-.097656 12.484376-1.722656 1.695312-3.964844 2.542968-6.195312 2.542968zm0 0" data-original="#000000"/></g><path d="m52.964844 35.308594h70.621094v35.3125h-70.621094zm0 0" fill="#fff" data-original="#FFF"/><path d="m467.863281 61.792969h-8.828125c-4.875 0-8.828125-3.953125-8.828125-8.828125 0-4.871094 3.953125-8.828125 8.828125-8.828125h8.828125c4.871094 0 8.828125 3.957031 8.828125 8.828125 0 4.875-3.957031 8.828125-8.828125 8.828125zm0 0" fill="#ebba16" data-original="#EBBA16"/><path d="m423.722656 61.792969h-8.824218c-4.875 0-8.828126-3.953125-8.828126-8.828125 0-4.871094 3.953126-8.828125 8.828126-8.828125h8.824218c4.875 0 8.828125 3.957031 8.828125 8.828125 0 4.875-3.953125 8.828125-8.828125 8.828125zm0 0" fill="#f32631" data-original="#F32631"/><path d="m379.585938 61.792969h-8.828126c-4.871093 0-8.828124-3.953125-8.828124-8.828125 0-4.871094 3.957031-8.828125 8.828124-8.828125h8.828126c4.875 0 8.828124 3.957031 8.828124 8.828125 0 4.875-3.953124 8.828125-8.828124 8.828125zm0 0" fill="#34b250" data-original="#34B250"/><path d="m430.007812 282.484375h-348.015624c-11.917969 0-22.371094-7.992187-25.488282-19.492187l-11.6875-43.0625c-3.175781-12.894532 5.175782-25.722657 16.730469-25.722657h388.898437c11.5625 0 19.90625 12.828125 16.726563 25.722657l-11.6875 43.0625c-3.105469 11.5-13.558594 19.492187-25.476563 19.492187zm0 0" fill="#7383bf" data-original="#7383BF"/><path d="m52.214844 247.171875h407.570312l4.792969-17.65625h-417.15625zm0 0" fill="#556080" data-original="#556080" class="active-path" style="fill:#556080"/></g> </svg>
