<?xml version="1.0"?>
<svg xmlns="http://www.w3.org/2000/svg" xmlns:xlink="http://www.w3.org/1999/xlink" version="1.1" id="Capa_1" x="0px" y="0px" viewBox="0 0 468.293 468.293" style="enable-background:new 0 0 468.293 468.293;" xml:space="preserve" width="512px" height="512px" class=""><g><path style="fill:#64798A;" d="M408.675,165.382H59.629V68.674c0-13.794,11.182-24.976,24.976-24.976H383.7  c13.794,0,24.976,11.182,24.976,24.976V165.382z" data-original="#64798A" class=""/><path style="fill:#E1E6E9;" d="M313.191,92.91v72.485h-57.069v-55.033c0-6.689,3.781-12.507,9.308-15.474  c2.443-1.28,5.178-1.978,8.144-1.978H313.191z" data-original="#E1E6E9" class=""/><path style="fill:#EBF0F3;" d="M370.26,110.362v55.033h-57.069V92.91h39.617c2.967,0,5.701,0.699,8.145,1.978  C366.479,97.855,370.26,103.672,370.26,110.362z" data-original="#EBF0F3"/><path style="fill:#D5D6DB;" d="M360.952,94.888l-26.178,16.462c-6.574,4.19-14.136,6.225-21.583,6.225  c-7.504,0-15.009-2.035-21.582-6.225L265.43,94.888c2.443-1.28,5.178-1.978,8.144-1.978h79.233  C355.774,92.91,358.509,93.608,360.952,94.888z" data-original="#D5D6DB"/><path style="fill:#E1E6E9;" d="M155.114,92.91v72.485H98.045v-55.033c0-6.689,3.781-12.507,9.308-15.474  c2.443-1.28,5.178-1.978,8.144-1.978H155.114z" data-original="#E1E6E9" class=""/><path style="fill:#EBF0F3;" d="M212.183,110.362v55.033h-57.069V92.91h39.617c2.967,0,5.701,0.699,8.145,1.978  C208.402,97.855,212.183,103.672,212.183,110.362z" data-original="#EBF0F3"/><path style="fill:#D5D6DB;" d="M202.875,94.888l-26.178,16.462c-6.574,4.19-14.136,6.225-21.583,6.225  c-7.504,0-15.009-2.035-21.582-6.225l-26.178-16.462c2.443-1.28,5.178-1.978,8.144-1.978h79.233  C197.698,92.91,200.432,93.608,202.875,94.888z" data-original="#D5D6DB"/><polygon style="fill:#FCD462;" points="451.112,330.603 17.181,330.603 58.476,165.424 409.817,165.424 " data-original="#FCD462"/><path style="fill:#64798A;" d="M455.805,424.594H12.488C5.591,424.594,0,419.003,0,412.106v-69.015  c0-6.897,5.591-12.488,12.488-12.488h443.317c6.897,0,12.488,5.591,12.488,12.488v69.015  C468.293,419.003,462.702,424.594,455.805,424.594z" data-original="#64798A" class=""/><path style="fill:#E56353;" d="M358.773,211.732c-19.302-6.16-45.48-6.16-61.627,0c-16.146-6.16-42.325-6.16-61.627,0  c-21.503,6.862-29.974,19.821-14.967,29.219l76.593,47.964l76.594-47.964C388.748,231.553,380.277,218.594,358.773,211.732z" data-original="#E56353"/><path style="fill:#27A2DB;" d="M168.32,188.973c-10.769-3.437-25.375-3.437-34.383,0c-9.009-3.437-23.615-3.437-34.383,0  c-11.997,3.829-16.724,11.059-8.35,16.302l42.734,26.761l42.734-26.761C185.043,200.032,180.317,192.802,168.32,188.973z" data-original="#27A2DB"/><path style="fill:#44C4A1" d="M168.32,266.569c-10.769-3.437-25.375-3.437-34.383,0c-9.009-3.437-23.615-3.437-34.383,0  c-11.997,3.829-16.724,11.059-8.35,16.302l42.734,26.761l42.734-26.761C185.043,277.628,180.317,270.398,168.32,266.569z" data-original="#44C4A1" class="active-path"/></g> </svg>
