<?xml version="1.0"?>
<svg xmlns="http://www.w3.org/2000/svg" height="512px" viewBox="0 0 382 382.53797" width="512px" class=""><g><path d="m20.074219 6.601562h343.261719v323.457032h-343.261719zm0 0" fill="#e9f0f4" data-original="#E9F0F4"/><g fill="#f49e21"><path d="m39.816406 330.308594c14.859375-.0625 14.917969 13.140625 29.777344 13.078125 3.503906.0625 6.945312-.917969 9.890625-2.820313v-50.113281c0-21.875-17.734375-39.609375-39.609375-39.609375h-39.605469v90.058594c2.957031 1.875 6.402344 2.828125 9.898438 2.734375 14.851562-.0625 14.796875-13.265625 29.648437-13.328125zm0 0" data-original="#000000"/><path d="m343.59375 330.308594c-14.863281-.0625-14.917969 13.140625-29.78125 13.078125-3.5.0625-6.945312-.917969-9.886719-2.820313v-50.113281c0-21.875 17.730469-39.609375 39.605469-39.609375h39.605469v90.058594c-2.953125 1.875-6.402344 2.828125-9.898438 2.734375-14.851562-.0625-14.796875-13.265625-29.644531-13.328125zm0 0" data-original="#000000"/><path d="m105.867188 46.207031c-19.816407 0-19.816407-13.199219-39.628907-13.199219-19.800781 0-19.800781 13.199219-39.601562 13.199219-14.027344 0-18.128907-6.617187-26.367188-10.480469v188.714844h39.605469c51.042969 0 92.417969-41.375 92.417969-92.417968v-96.304688c-8.261719 3.859375-12.371094 10.488281-26.425781 10.488281zm0 0" data-original="#000000"/><path d="m277.542969 46.207031c19.8125 0 19.8125-13.199219 39.628906-13.199219 19.800781 0 19.800781 13.199219 39.601563 13.199219 14.023437 0 18.128906-6.617187 26.363281-10.480469v188.714844h-39.605469c-51.039062 0-92.417969-41.375-92.417969-92.417968v-96.304688c8.265625 3.859375 12.371094 10.488281 26.429688 10.488281zm0 0" data-original="#000000"/></g><path d="m59.679688 303.652344h-13.203126c0-35.117188-22.527343-46.785156-22.753906-46.902344l5.902344-11.808594c1.226562.609375 30.054688 15.523438 30.054688 58.710938zm0 0" fill="#ffd782" data-original="#FFD782"/><path d="m69.59375 343.386719c-14.859375.0625-14.917969-13.140625-29.777344-13.078125-14.851562.0625-14.796875 13.265625-29.644531 13.328125-3.5.09375-6.945313-.859375-9.902344-2.734375v39.355468c2.957031 1.875 6.402344 2.828126 9.902344 2.734376 14.847656-.0625 14.792969-13.261719 29.644531-13.324219 14.859375-.0625 14.917969 13.140625 29.777344 13.074219 3.503906.0625 6.945312-.917969 9.890625-2.816407v-39.359375c-2.945313 1.902344-6.386719 2.882813-9.890625 2.820313zm0 0" fill="#ffd782" data-original="#FFD782"/><path d="m336.929688 303.652344h-13.203126c0-43.1875 28.832032-58.101563 30.054688-58.710938l5.90625 11.808594-2.953125-5.90625 2.992187 5.886719c-.929687.476562-22.796874 12.210937-22.796874 46.921875zm0 0" fill="#ffd782" data-original="#FFD782"/><path d="m313.8125 343.386719c14.863281.0625 14.917969-13.140625 29.78125-13.078125 14.847656.0625 14.792969 13.265625 29.644531 13.328125 3.496094.09375 6.945313-.859375 9.898438-2.734375v39.355468c-2.953125 1.875-6.402344 2.828126-9.898438 2.734376-14.851562-.0625-14.796875-13.261719-29.644531-13.324219-14.863281-.0625-14.917969 13.140625-29.78125 13.074219-3.5.0625-6.945312-.917969-9.886719-2.816407v-39.359375c2.941407 1.902344 6.386719 2.882813 9.886719 2.820313zm0 0" fill="#ffd782" data-original="#FFD782"/><path d="m132.292969 0h118.820312v26.40625h-118.820312zm0 0" fill="#ad6327" data-original="#AD6327"/><path d="m79.484375 316.855469h224.4375v26.40625h-224.4375zm0 0" fill="#ad6327" data-original="#AD6327"/><path d="m178.5 26.40625h26.40625v290.449219h-26.40625zm0 0" fill="#aabece" data-original="#AABECE" class="active-path" style="fill:#AABECE"/><path d="m127.335938 202.390625 9.9375-8.695313 46.207031 52.8125-9.9375 8.695313zm0 0" fill="#aabece" data-original="#AABECE" class="active-path" style="fill:#AABECE"/><path d="m133.914062 248.550781 10.023438-8.585937 39.609375 46.214844-10.019531 8.585937zm0 0" fill="#aabece" data-original="#AABECE" class="active-path" style="fill:#AABECE"/><path d="m66.238281 33.003906c19.8125 0 19.8125 13.203125 39.628907 13.203125 14.054687 0 18.164062-6.628906 26.425781-10.492187v-35.714844h-132.023438v35.726562c8.234375 3.863282 12.339844 10.480469 26.363281 10.480469 19.804688 0 19.804688-13.203125 39.605469-13.203125zm0 0" fill="#ffd782" data-original="#FFD782"/><path d="m317.171875 33.003906c-19.816406 0-19.816406 13.203125-39.628906 13.203125-14.058594 0-18.164063-6.628906-26.429688-10.492187v-35.714844h132.023438v35.726562c-8.234375 3.863282-12.339844 10.480469-26.363281 10.480469-19.800782 0-19.800782-13.203125-39.601563-13.203125zm0 0" fill="#ffd782" data-original="#FFD782"/><path d="m.269531 224.441406h39.605469v26.402344h-39.605469zm0 0" fill="#ad6327" data-original="#AD6327"/><path d="m343.53125 224.441406h39.605469v26.402344h-39.605469zm0 0" fill="#ad6327" data-original="#AD6327"/></g> </svg>
