<svg height="512pt" viewBox="0 0 512 512" width="512pt" xmlns="http://www.w3.org/2000/svg" xmlns:xlink="http://www.w3.org/1999/xlink"><linearGradient id="a" gradientUnits="userSpaceOnUse" x1="74.9807" x2="437.0193" y1="74.9807" y2="437.0193"><stop offset="0" stop-color="#69a8ff"/><stop offset="1" stop-color="#4482d9"/></linearGradient><linearGradient id="b"><stop offset="0" stop-color="#867069"/><stop offset="1" stop-color="#735a52"/></linearGradient><linearGradient id="c" gradientUnits="userSpaceOnUse" x1="338.3132" x2="490.1868" xlink:href="#b" y1="179.0632" y2="330.9368"/><linearGradient id="d" gradientUnits="userSpaceOnUse" x1="21.8132" x2="173.6868" xlink:href="#b" y1="179.0632" y2="330.9368"/><linearGradient id="e"><stop offset="0" stop-color="#f67547"/><stop offset="1" stop-color="#f34a28"/></linearGradient><linearGradient id="f" gradientUnits="userSpaceOnUse" x1="145.9375" x2="366.0625" xlink:href="#e" y1="54.9355" y2="275.0605"/><linearGradient id="g" gradientUnits="userSpaceOnUse" x1="145.9375" x2="366.0625" y1="111.1855" y2="331.3105"><stop offset="0" stop-color="#fccc86"/><stop offset="1" stop-color="#f67547"/></linearGradient><linearGradient id="h" gradientUnits="userSpaceOnUse" x1="154.375" x2="357.625" xlink:href="#e" y1="192.748" y2="395.998"/><path d="m512 256c0 141.386719-114.613281 256-256 256s-256-114.613281-256-256 114.613281-256 256-256 256 114.613281 256 256zm0 0" fill="url(#a)"/><path d="m403 114.375h22.5v281.246094h-22.5zm0 0" fill="url(#c)"/><path d="m86.5 114.375h22.5v281.246094h-22.5zm0 0" fill="url(#d)"/><path d="m448 136.871094h-384v56.25l163.546875 25.558594-1.546875 4.441406 16.085938-2.171875 13.914062 2.171875v-4.050782l192-25.949218zm0 0" fill="url(#f)"/><path d="m256 193.121094h-192v56.25h384v-56.25zm0 0" fill="url(#g)"/><path d="m256 283.121094h-192v22.5h384v-22.5zm0 0" fill="url(#h)"/></svg>