<?xml version="1.0"?>
<svg xmlns="http://www.w3.org/2000/svg" height="512px" viewBox="0 -31 464 463" width="512px"><g><path d="m72 192.5h160v176h-176v-160c0-8.835938 7.164062-16 16-16zm0 0" fill="#769c30" data-original="#769C30"/><path d="m232 192.5h160c8.835938 0 16 7.164062 16 16v160h-176zm0 0" fill="#769c30" data-original="#769C30"/><path d="m72 304.5c-8.835938 0-16 7.164062-16 16v48h176v-64zm0 0" fill="#7ea633" data-original="#7EA633"/><path d="m408 320.5c0-8.835938-7.164062-16-16-16h-160v64h176zm0 0" fill="#7ea633" data-original="#7EA633"/><path d="m16 256.5h40v112h-56v-96c0-8.835938 7.164062-16 16-16zm0 0" fill="#88b337" data-original="#88B337"/><path d="m408 256.5h40c8.835938 0 16 7.164062 16 16v96h-56zm0 0" fill="#88b337" data-original="#88B337"/><path d="m72 400.5h-24l8-32h40zm0 0" fill="#995023" data-original="#995023"/><path d="m392 400.5h24l-8-32h-40zm0 0" fill="#995023" data-original="#995023"/><path d="m104 256.5h16v16h-16zm0 0" fill="#6e912d" data-original="#6E912D"/><path d="m167.992188 256.5h16v16h-16zm0 0" fill="#6e912d" data-original="#6E912D"/><path d="m280 256.5h16v16h-16zm0 0" fill="#6e912d" data-original="#6E912D"/><path d="m344 256.5h16v16h-16zm0 0" fill="#6e912d" data-original="#6E912D"/><g fill="#88b337"><path d="m104 240.5h16v16h-16zm0 0" data-original="#000000"/><path d="m167.992188 240.5h16v16h-16zm0 0" data-original="#000000"/><path d="m280 240.5h16v16h-16zm0 0" data-original="#000000"/><path d="m344 240.5h16v16h-16zm0 0" data-original="#000000"/></g><path d="m48 72.5h368v32h-368zm0 0" fill="#995023" data-original="#995023"/><path d="m80 104.5h32v40h-32zm0 0" fill="#995023" data-original="#995023"/><path d="m352 104.5h32v40h-32zm0 0" fill="#995023" data-original="#995023"/><path d="m80 104.5h32v16h-32zm0 0" fill="#7a3e1a" data-original="#7A3E1A"/><path d="m352 104.5h32v16h-32zm0 0" fill="#7a3e1a" data-original="#7A3E1A"/><path d="m176 .5h32v72h-32zm0 0" fill="#88b337" data-original="#88B337"/><path d="m232.328125.5-24.328125 11.609375 23.671875 60.390625 24.328125-11.609375zm0 0" fill="#4398d1" data-original="#4398D1"/><path d="m144 .5h32v72h-32zm0 0" fill="#4398d1" data-original="#4398D1"/><path d="m112 16.5h32v56h-32zm0 0" fill="#dd4a43" data-original="#DD4A43" class="active-path" style="fill:#DD4A43"/><path d="m80 .5h32v72h-32zm0 0" fill="#4398d1" data-original="#4398D1"/><path d="m344 40.5c5.039062-10.070312 5.039062-21.929688 0-32h56c8.835938 0 16 7.164062 16 16s-7.164062 16-16 16zm0 0" fill="#4398d1" data-original="#4398D1"/><path d="m344 72.5c5.039062-10.070312 5.039062-21.929688 0-32h56c8.835938 0 16 7.164062 16 16s-7.164062 16-16 16zm0 0" fill="#dd4a43" data-original="#DD4A43" class="active-path" style="fill:#DD4A43"/><path d="m224 192.5h16v112h-16zm0 0" fill="#6e912d" data-original="#6E912D"/><path d="m224 304.5h16v64h-16zm0 0" fill="#769c30" data-original="#769C30"/><path d="m96 368.5h-40l-4 16h32zm0 0" fill="#7a3e1a" data-original="#7A3E1A"/><path d="m408 368.5h-40l12 16h32zm0 0" fill="#7a3e1a" data-original="#7A3E1A"/></g> </svg>
