<?xml version="1.0"?>
<svg xmlns="http://www.w3.org/2000/svg" height="512px" viewBox="0 0 512 512" width="512px"><g><path d="m512 256c0 141.386719-114.613281 256-256 256s-256-114.613281-256-256 114.613281-256 256-256 256 114.613281 256 256zm0 0" fill="#ff7a78" data-original="#FF7A78"/><path d="m511.578125 241.441406-175.609375-175.613281-147.152344 147.152344 10.914063 10.917969-48.164063 48.164062 57.746094 57.746094-22.746094 22.75 58.039063 58.042968-25.667969-.332031-34.667969-8.667969-38.621093 38.621094 68.320312 68.320313c13.675781 2.261719 27.714844 3.457031 42.03125 3.457031 141.386719 0 256-114.613281 256-256 0-4.886719-.152344-9.738281-.421875-14.558594zm0 0" fill="#ff5552" data-original="#FF5552"/><path d="m245.03125 261.042969h21.9375v146.253906h-21.9375zm0 0" fill="#337aad" data-original="#337AAD"/><path d="m186.53125 261.042969h21.9375v91.40625h-21.9375zm0 0" fill="#bab8b6" data-original="#BAB8B6"/><path d="m366.417969 396.324219v43.875h-21.9375v-21.933594h-88.480469l-21.9375-10.96875 21.9375-10.972656zm0 0" fill="#1a405e" data-original="#1A405E"/><path d="m353.960938 217.167969 6.527343 54.84375h-104.488281l-21.9375-76.78125zm0 0" fill="#ffeea6" data-original="#FFEEA6"/><path d="m335.941406 65.800781 18.019532 151.367188h-97.960938l-43.875-75.683594 43.875-75.683594zm0 0" fill="#ffdf5e" data-original="#FFDF5E"/><path d="m256 396.324219v21.941406h-88.480469v21.933594h-21.9375v-43.875zm0 0" fill="#275d86" data-original="#275D86"/><path d="m256 195.230469v76.78125h-104.488281l6.527343-54.84375zm0 0" fill="#fff7d3" data-original="#FFF7D3" class="active-path" style="fill:#FFF7D3"/><path d="m256 65.800781v151.367188h-97.960938l18.019532-151.367188zm0 0" fill="#ffeea6" data-original="#FFEEA6"/></g> </svg>
