<?xml version="1.0"?>
<svg xmlns="http://www.w3.org/2000/svg" height="512px" viewBox="0 -26 512.00045 512" width="512px"><g><path d="m442.5 126.289062c-8.449219 0-15.296875 6.851563-15.296875 15.296876v160.046874c0 8.449219 6.847656 15.300782 15.296875 15.300782s15.300781-6.851563 15.300781-15.300782v-160.046874c0-8.445313-6.851562-15.296876-15.300781-15.296876zm0 0" fill="#83d8f0" data-original="#83D8F0"/><path d="m459.402344 333.363281h-417.003906c-8.449219 0-15.296876 6.847657-15.296876 15.296875v95.957032c0 8.449218 6.847657 15.296874 15.296876 15.296874h417.003906c8.445312 0 15.296875-6.847656 15.296875-15.296874v-95.957032c0-8.449218-6.851563-15.296875-15.296875-15.296875zm0 0" fill="#15708a" data-original="#15708A"/><path d="m403.207031 183.984375h-304.613281c-25.308594 0-45.894531 20.589844-45.894531 45.894531v118.78125c0 8.449219 6.847656 15.300782 15.296875 15.300782h365.808594c8.449218 0 15.296874-6.851563 15.296874-15.300782v-118.78125c0-25.304687-20.589843-45.894531-45.894531-45.894531zm0 0" fill="#14b8b3" data-original="#14B8B3"/><path d="m459.402344 333.363281h-211.140625v126.550781h211.140625c8.449218 0 15.296875-6.847656 15.296875-15.296874v-95.957032c0-8.449218-6.851563-15.296875-15.296875-15.296875zm0 0" fill="#104a5c" data-original="#104A5C"/><path d="m403.207031 183.984375h-154.945312v179.976563h185.542969c8.449218 0 15.296874-6.851563 15.296874-15.300782v-118.78125c0-25.304687-20.589843-45.894531-45.894531-45.894531zm0 0" fill="#258ba8" data-original="#258BA8"/><path d="m66.203125 278.210938h-24.011719c-23.300781 0-42.191406 18.890624-42.191406 42.191406v97.320312c0 23.300782 18.890625 42.191406 42.191406 42.191406h66.207032v-139.511718c-.003907-23.300782-18.890626-42.191406-42.195313-42.191406zm0 0" fill="#15708a" data-original="#15708A"/><path d="m66.203125 278.210938h-12.003906v181.703124h54.199219v-139.511718c-.003907-23.300782-18.890626-42.191406-42.195313-42.191406zm0 0" fill="#104a5c" data-original="#104A5C"/><path d="m459.605469 278.210938h-24.011719c-23.300781 0-42.191406 18.890624-42.191406 42.191406v139.511718h66.207031c23.300781 0 42.191406-18.890624 42.191406-42.191406v-97.320312c0-23.300782-18.890625-42.191406-42.195312-42.191406zm0 0" fill="#15708a" data-original="#15708A"/><path d="m459.605469 278.210938h-12.003907v181.703124h12.003907c23.304687 0 42.195312-18.890624 42.195312-42.191406v-97.320312c0-23.300782-18.890625-42.191406-42.195312-42.191406zm0 0" fill="#104a5c" data-original="#104A5C"/><path d="m283.484375 0h-258.917969c-8.449218 0-15.300781 6.851562-15.300781 15.300781v103.339844c0 8.449219 6.851563 15.296875 15.300781 15.296875h258.917969c8.449219 0 15.296875-6.847656 15.296875-15.296875v-103.339844c0-8.449219-6.847656-15.300781-15.296875-15.300781zm0 0" fill="#f2f2f2" data-original="#F2F2F2"/><path d="m283.484375 0h-129.460937v133.9375h129.460937c8.449219 0 15.296875-6.847656 15.296875-15.296875v-103.339844c0-8.449219-6.847656-15.300781-15.296875-15.300781zm0 0" fill="#83d8f0" data-original="#83D8F0"/><path d="m511.570312 135.175781-23.394531-96.703125c-1.660156-6.867187-7.804687-11.703125-14.867187-11.703125h-61.613282c-7.066406 0-13.210937 4.835938-14.871093 11.703125l-23.394531 96.703125c-1.101563 4.558594-.050782 9.371094 2.847656 13.058594 2.902344 3.683594 7.332031 5.835937 12.023437 5.835937h108.398438c4.691406 0 9.125-2.152343 12.023437-5.835937 2.902344-3.6875 3.953125-8.5 2.847656-13.058594zm0 0" fill="#ffc157" data-original="#FFC157"/><path d="m511.570312 135.175781-23.394531-96.703125c-1.660156-6.867187-7.804687-11.703125-14.867187-11.703125h-30.808594v127.300781h54.199219c4.691406 0 9.125-2.152343 12.023437-5.835937 2.902344-3.6875 3.953125-8.5 2.847656-13.058594zm0 0" fill="#f5873b" data-original="#F5873B" class="active-path" style="fill:#F5873B"/></g> </svg>
