<?xml version="1.0"?>
<svg xmlns="http://www.w3.org/2000/svg" height="512px" viewBox="-72 0 464 464" width="512px"><g><path d="m304 88c0-48.601562-64.472656-88-144-88s-144 39.398438-144 88v48c0 48.601562 64.472656 88 144 88s144-39.398438 144-88zm0 0" fill="#995023" data-original="#995023"/><path d="m304 88c0-48.601562-64.472656-88-144-88s-144 39.398438-144 88 64.472656 88 144 88 144-39.398438 144-88zm0 0" fill="#af6135" data-original="#AF6135"/><path d="m113.992188 45.601562-4-15.496093c5.40625-1.394531 11.023437-2.570313 16.703124-3.496094l2.578126 15.796875c-5.183594.875-10.335938 1.953125-15.28125 3.195312zm0 0" fill="#c67e59" data-original="#C67E59"/><path d="m60.128906 76.496094-13.234375-8.992188c11.886719-15.082031 28.015625-26.261718 46.304688-32.105468l5.601562 14.984374c-15.148437 4.773438-28.582031 13.847657-38.671875 26.113282zm0 0" fill="#c67e59" data-original="#C67E59"/><path d="m39.199219 183.824219-39.199219 280.175781h40l35.929688-256.65625c-13.484376-5.710938-25.902344-13.664062-36.730469-23.519531zm0 0" fill="#87451c" data-original="#87451C"/><path d="m320 464-39.199219-280.175781c-10.820312 9.855469-23.230469 17.808593-36.703125 23.519531l35.902344 256.65625zm0 0" fill="#87451c" data-original="#87451C"/><g fill="#703918"><path d="m160 223.648438c-8.191406 0-16.175781-.375-24-.96875v217.320312h48v-217.320312c-7.824219.59375-15.808594.96875-24 .96875zm0 0" data-original="#000000" class="active-path" style="fill:#000000"/><path d="m136 256-71.910156 35.960938-6.027344 43.007812 77.9375-38.96875zm0 0" data-original="#000000" class="active-path" style="fill:#000000"/><path d="m184 256 71.910156 35.960938 6.027344 43.007812-77.9375-38.96875zm0 0" data-original="#000000" class="active-path" style="fill:#000000"/></g><path d="m57.921875 336-5.601563 40h215.359376l-5.601563-40zm0 0" fill="#995023" data-original="#995023"/></g> </svg>
