<?xml version="1.0"?>
<svg xmlns="http://www.w3.org/2000/svg" height="512px" viewBox="-31 0 512 512" width="512px"><g><path d="m0 60h450v452h-450zm0 0" fill="#76e2f8" data-original="#76E2F8"/><path d="m225 60h225v452h-225zm0 0" fill="#15ccea" data-original="#15CCEA"/><path d="m270 240h120v30h-120zm0 0" fill="#76e2f8" data-original="#76E2F8"/><path d="m60 240h120v30h-120zm0 0" fill="#9bfcff" data-original="#9BFCFF" class="active-path" style="fill:#9BFCFF"/><path d="m330 0v45l-105 45-105-45v-45zm0 0" fill="#76e2f8" data-original="#76E2F8"/><path d="m330 0v45l-105 45v-90zm0 0" fill="#15ccea" data-original="#15CCEA"/><path d="m165 180-75-120 30-60 105 90zm0 0" fill="#9bfcff" data-original="#9BFCFF" class="active-path" style="fill:#9BFCFF"/><path d="m285 180 75-120-30-60-105 90zm0 0" fill="#76e2f8" data-original="#76E2F8"/></g> </svg>
